<?xml version="1.0" standalone="no"?>
<!DOCTYPE svg PUBLIC "-//W3C//DTD SVG 1.1//EN" "http://www.w3.org/Graphics/SVG/1.1/DTD/svg11.dtd" >
<svg xmlns="http://www.w3.org/2000/svg">
<metadata>Generated by IcoMoon</metadata>
<defs>
<font id="icomoon" horiz-adv-x="1024">
<font-face units-per-em="1024" ascent="960" descent="-64" />
<missing-glyph horiz-adv-x="1024" />
<glyph unicode="&#x20;" horiz-adv-x="512" d="" />
<glyph unicode="&#xe900;" d="M341.334 112.558h-323.678c-9.75 0-17.656 7.906-17.656 17.656v635.586c0 9.75 7.906 17.656 17.656 17.656h323.678v-670.898z" />
<glyph unicode="&#xe901;" d="M341.34 783.446h341.34v-670.9h-341.34v670.9z" />
<glyph unicode="&#xe902;" d="M1006.344 112.558h-323.678v670.896h323.678c9.75 0 17.656-7.906 17.656-17.656v-635.586c0-9.752-7.906-17.654-17.656-17.654z" />
<glyph unicode="&#xe903;" d="M17.656 112.552h988.688c9.75 0 17.656 7.906 17.656 17.656v635.585c0 9.75-7.906 17.656-17.656 17.656h-988.688c-9.75-0.002-17.656-7.906-17.656-17.656v-635.585c0-9.752 7.906-17.656 17.656-17.656z" />
<glyph unicode="&#xe904;" d="M0 642.199h1023.998v-388.419h-1023.998v388.419z" />
<glyph unicode="&#xe905;" d="M432.551 447.999l14.97 67.362c1.38 6.204-3.342 12.088-9.698 12.088h-10.544c-6.354 0-11.074-5.884-9.698-12.088l14.97-67.362z" />
<glyph unicode="&#xe906;" d="M414.899 483.319h35.31v-150.060h-35.31v150.060z" />
<glyph unicode="&#xe907;" d="M406.059 500.959h52.966v-17.656h-52.966v17.656z" />
<glyph unicode="&#xe908;" d="M370.759 447.999h88.28v-17.656h-88.28v17.656z" />
<glyph unicode="&#xe909;" d="M459.033 377.379l-52.966 17.654v17.656l52.966-17.656z" />
<glyph unicode="&#xe90a;" d="M167.724 447.999l14.97 67.362c1.38 6.204-3.342 12.088-9.698 12.088h-10.544c-6.354 0-11.074-5.884-9.698-12.088l14.97-67.362z" />
<glyph unicode="&#xe90b;" d="M229.518 500.965c-9.75 0-17.656-7.906-17.656-17.656v-114.758c0-21.45 20.020-61.794 88.276-61.794s88.276 40.342 88.276 61.794v114.758c0 9.75-7.906 17.656-17.656 17.656h-141.24z" />
<glyph unicode="&#xe90c;" d="M300.137 412.689h-88.276v70.62c0 9.75 7.906 17.656 17.656 17.656h70.62v-88.276z" />
<glyph unicode="&#xe90d;" d="M300.137 412.689h88.276v-44.138c0-24.378-19.76-44.138-44.138-44.138v0c-24.378 0-44.138 19.76-44.138 44.138v44.138z" />
<glyph unicode="&#xe90e;" d="M211.862 412.689h88.276v-44.138c0-24.378-19.76-44.138-44.138-44.138v0c-24.378 0-44.138 19.76-44.138 44.138v44.138z" />
<glyph unicode="&#xe90f;" d="M282.481 333.439v79.25h-17.656v-87.386c6.568 1.332 12.502 4.24 17.656 8.136z" />
<glyph unicode="&#xe910;" d="M247.172 325.303v87.386h-17.656v-79.25c5.156-3.896 11.090-6.804 17.656-8.136z" />
<glyph unicode="&#xe911;" d="M229.52 447.999h52.966v-17.656h-52.966v17.656z" />
<glyph unicode="&#xe912;" d="M229.52 483.319h52.966v-17.656h-52.966v17.656z" />
<glyph unicode="&#xe913;" d="M238.34 472.819h35.31v-31.984h-35.31v31.984z" />
<glyph unicode="&#xe914;" d="M150.060 483.319h35.31v-150.060h-35.31v150.060z" />
<glyph unicode="&#xe915;" d="M141.24 342.059h52.966v-17.656h-52.966v17.656z" />
<glyph unicode="&#xe916;" d="M141.24 500.959h52.966v-17.656h-52.966v17.656z" />
<glyph unicode="&#xe917;" d="M132.42 324.419h70.62v-17.656h-70.62v17.656z" />
<glyph unicode="&#xe918;" d="M414.899 342.059h52.966v-17.656h-52.966v17.656z" />
<glyph unicode="&#xe919;" d="M397.239 324.419h70.62v-17.656h-70.62v17.656z" />
<glyph unicode="&#xe91a;" d="M247.18 518.619h105.932v-17.656h-105.932v17.656z" />
<glyph unicode="&#xe91b;" d="M291.319 571.579h17.656v-52.966h-17.656v52.966z" />
<glyph unicode="&#xe91c;" d="M282.481 545.103c-14.604 0-26.482 11.88-26.482 26.482 0 14.604 11.88 26.482 26.482 26.482 14.604 0 26.482-11.88 26.482-26.482 0.002-14.602-11.878-26.482-26.482-26.482zM282.481 580.413c-4.87 0-8.828-3.956-8.828-8.828 0-4.87 3.956-8.828 8.828-8.828s8.828 3.956 8.828 8.828c0 4.87-3.956 8.828-8.828 8.828z" />
<glyph unicode="&#xe91d;" d="M317.793 545.103c-14.604 0-26.482 11.88-26.482 26.482 0 14.604 11.88 26.482 26.482 26.482 14.604 0 26.482-11.88 26.482-26.482s-11.88-26.482-26.482-26.482zM317.793 580.413c-4.87 0-8.828-3.956-8.828-8.828 0-4.87 3.956-8.828 8.828-8.828 4.87 0 8.828 3.956 8.828 8.828-0.002 4.87-3.958 8.828-8.828 8.828z" />
<glyph unicode="&#xe91e;" d="M353.103 527.447c-14.604 0-26.482 11.88-26.482 26.482 0 14.604 11.88 26.482 26.482 26.482 14.604 0 26.482-11.88 26.482-26.482s-11.88-26.482-26.482-26.482zM353.103 562.757c-4.87 0-8.828-3.956-8.828-8.828 0-4.87 3.956-8.828 8.828-8.828 4.87 0 8.828 3.956 8.828 8.828s-3.958 8.828-8.828 8.828z" />
<glyph unicode="&#xe91f;" d="M247.172 527.447c-14.604 0-26.482 11.88-26.482 26.482 0 14.604 11.88 26.482 26.482 26.482 14.604 0 26.482-11.88 26.482-26.482 0.002-14.602-11.878-26.482-26.482-26.482zM247.172 562.757c-4.87 0-8.828-3.956-8.828-8.828 0-4.87 3.956-8.828 8.828-8.828s8.828 3.958 8.828 8.83c0 4.87-3.956 8.826-8.828 8.826z" />
<glyph unicode="&#xe920;" d="M353.103 377.379v-8.828c0-4.868-3.96-8.828-8.828-8.828s-8.828 3.96-8.828 8.828v8.828h17.656zM370.757 395.033h-52.966v-26.482c0-14.604 11.88-26.482 26.482-26.482 14.604 0 26.482 11.88 26.482 26.482v26.482h0.002z" />
<glyph unicode="&#xe921;" d="M344.275 430.343v0c-9.75 0-17.656 7.906-17.656 17.656v17.656c0 9.75 7.906 17.656 17.656 17.656v0c9.75 0 17.656-7.906 17.656-17.656v-17.656c0-9.75-7.906-17.656-17.656-17.656z" />
<glyph unicode="&#xe922;" d="M326.621 412.699c0-14.626-11.856-26.482-26.482-26.482s-26.482 11.856-26.482 26.482c0 14.626 11.856 26.482 26.482 26.482s26.482-11.856 26.482-26.482z" />
<glyph unicode="&#xe923;" d="M291.319 606.899h17.656v-52.966h-17.656v52.966z" />
<glyph unicode="&#xe924;" d="M247.172 518.619l-17.656 17.656 10.342 10.342c15.986 15.986 37.67 24.968 60.28 24.968v0c22.61 0 44.292-8.982 60.28-24.968l10.342-10.342-17.656-17.656h-105.932z" />
<glyph unicode="&#xe925;" d="M308.967 536.279c0-4.876-3.952-8.828-8.828-8.828s-8.828 3.952-8.828 8.828c0 4.876 3.952 8.828 8.828 8.828s8.828-3.952 8.828-8.828z" />
<glyph unicode="&#xe926;" d="M273.647 536.279c0-4.876-3.952-8.828-8.828-8.828s-8.828 3.952-8.828 8.828c0 4.876 3.952 8.828 8.828 8.828s8.828-3.952 8.828-8.828z" />
<glyph unicode="&#xe927;" d="M344.267 536.279c0-4.876-3.952-8.828-8.828-8.828s-8.828 3.952-8.828 8.828c0 4.876 3.952 8.828 8.828 8.828s8.828-3.952 8.828-8.828z" />
<glyph unicode="&#xe928;" d="M141.24 447.999h88.28v-17.656h-88.28v17.656z" />
<glyph unicode="&#xe929;" d="M141.242 377.379l52.964 17.654v17.656l-52.964-17.656z" />
<glyph unicode="&#xe92a;" d="M1023.998 559.815h-1023.998v205.978c0 9.75 7.906 17.656 17.656 17.656h988.688c9.75 0 17.656-7.906 17.656-17.656l-0.002-205.978z" />
<glyph unicode="&#xe92b;" d="M1006.342 112.552h-988.686c-9.75 0-17.656 7.906-17.656 17.656v205.976h1023.998v-205.976c0-9.752-7.906-17.656-17.656-17.656z" />
<glyph unicode="&#xe92c;" d="M0 559.819h1023.998v-223.62h-1023.998v223.62z" />
<glyph unicode="&#xe92d;" d="M1006.34 112.553h-988.684c-9.75 0-17.656 7.906-17.656 17.656v635.584c0 9.75 7.906 17.656 17.656 17.656h988.686c9.75 0 17.656-7.906 17.656-17.656v-635.584c-0.002-9.75-7.908-17.656-17.658-17.656z" />
<glyph unicode="&#xe92e;" d="M1023.996 765.793c0 9.75-7.906 17.656-17.656 17.656h-78.99l-327.079-214.293v214.293h-176.551v-214.293l-327.077 214.293h-78.988c-9.75 0-17.656-7.906-17.656-17.656v-45.662l280.617-183.853h-280.617v-176.551h280.617l-280.617-183.855v-45.662c0-9.75 7.906-17.656 17.656-17.656h78.99l327.079 214.293v-214.293h176.551v214.293l327.079-214.293h78.99c9.75 0 17.656 7.906 17.656 17.656v45.662l-280.617 183.853h280.613v176.551h-280.617l280.617 183.855v45.662z" />
<glyph unicode="&#xe92f;" d="M1023.996 500.966h-459.032v282.483h-105.932v-282.483h-459.032v-105.93h459.032v-282.483h105.932v282.483h459.032z" />
<glyph unicode="&#xe930;" d="M357.895 359.726l-357.395-231.993c1.25-8.526 8.28-15.18 17.154-15.18h24.318l380.779 247.171-64.856 0.002z" />
<glyph unicode="&#xe931;" d="M692.773 359.726h-64.856l380.225-246.807c8.862 0.944 15.856 8.18 15.856 17.292v14.516l-331.225 214.999z" />
<glyph unicode="&#xe932;" d="M0 746.303l323.557-210.027h64.856l-378.127 245.451c-6.040-2.806-10.286-8.836-10.286-15.934v-19.49z" />
<glyph unicode="&#xe933;" d="M665.129 536.276l358.253 232.553c-1.488 8.244-8.368 14.618-17.042 14.618h-25.294l-380.773-247.171h64.856z" />
<glyph unicode="&#xe934;" d="M1023.998 559.815h-1023.998v205.978c0 9.75 7.906 17.656 17.656 17.656h988.688c9.75 0 17.656-7.906 17.656-17.656l-0.002-205.978z" />
<glyph unicode="&#xe935;" d="M1006.342 112.552h-988.686c-9.75 0-17.656 7.906-17.656 17.656v205.976h1023.998v-205.976c0-9.752-7.906-17.656-17.656-17.656z" />
<glyph unicode="&#xe936;" d="M0 559.819h1023.998v-223.62h-1023.998v223.62z" />
<glyph unicode="&#xe937;" glyph-name="brand" d="M967.488 960h-910.976c-31.232 0-56.512-25.28-56.512-56.512v-910.976c0-31.232 25.28-56.512 56.512-56.512h490.432v396.544h-133.504v154.496h133.504v114.112c0 132.224 80.768 204.16 198.784 204.16 56.512 0 105.088-4.096 119.232-6.016v-138.24h-81.92c-64 0-76.48-30.72-76.48-75.52v-98.56h152.96l-19.84-154.88h-133.12v-396.096h260.928c31.232 0 56.512 25.28 56.512 56.512v910.976c0 31.232-25.28 56.512-56.512 56.512z" />
<glyph unicode="&#xe938;" glyph-name="brand2" d="M512 960c-139.072 0-156.48-0.64-211.072-3.072-54.528-2.56-91.648-11.136-124.288-23.808-33.664-13.056-62.272-30.592-90.688-59.072-28.48-28.416-46.080-56.96-59.072-90.688-12.672-32.64-21.312-69.76-23.808-124.288-2.56-54.592-3.072-72-3.072-211.072s0.64-156.48 3.072-211.072c2.56-54.528 11.136-91.712 23.808-124.288 13.056-33.664 30.592-62.272 59.072-90.688 28.416-28.48 56.96-46.080 90.688-59.072 32.64-12.672 69.76-21.312 124.288-23.808 54.592-2.56 72-3.072 211.072-3.072s156.48 0.64 211.072 3.072c54.528 2.56 91.712 11.136 124.288 23.808 33.664 13.056 62.272 30.592 90.688 59.072 28.48 28.416 46.080 56.96 59.072 90.688 12.672 32.64 21.312 69.76 23.808 124.288 2.56 54.592 3.072 72 3.072 211.072s-0.64 156.48-3.072 211.072c-2.56 54.528-11.136 91.712-23.808 124.288-13.056 33.664-30.592 62.272-59.072 90.688-28.416 28.48-56.96 46.080-90.688 59.072-32.64 12.672-69.76 21.312-124.288 23.808-54.592 2.56-72 3.072-211.072 3.072zM512 867.84c136.704 0 152.96-0.64 206.912-3.072 49.92-2.304 76.992-10.624 95.040-17.664 23.936-9.28 40.96-20.352 58.88-38.272s28.992-34.944 38.272-58.88c7.040-18.048 15.36-45.12 17.664-95.040 2.432-54.016 3.008-70.208 3.008-206.912s-0.64-152.96-3.2-206.912c-2.56-49.92-10.88-76.992-17.92-95.040-9.6-23.936-20.48-40.96-38.4-58.88s-35.2-28.992-58.88-38.272c-17.92-7.040-45.44-15.36-95.36-17.664-54.4-2.432-70.4-3.008-207.36-3.008s-152.96 0.64-207.36 3.2c-49.92 2.56-77.44 10.88-95.36 17.92-24.32 9.6-40.96 20.48-58.88 38.4s-29.44 35.2-38.4 58.88c-7.040 17.92-15.36 45.44-17.92 95.36-1.92 53.76-2.56 70.4-2.56 206.72s0.64 152.96 2.56 207.36c2.56 49.92 10.88 77.44 17.92 95.36 8.96 24.32 20.48 40.96 38.4 58.88s34.56 29.44 58.88 38.4c17.92 7.040 44.8 15.36 94.72 17.92 54.4 1.92 70.4 2.56 207.36 2.56zM512 710.912c-145.28 0-262.912-117.76-262.912-262.912 0-145.28 117.76-262.912 262.912-262.912 145.28 0 262.912 117.76 262.912 262.912 0 145.28-117.76 262.912-262.912 262.912zM512 277.312c-94.272 0-170.688 76.416-170.688 170.688s76.416 170.688 170.688 170.688c94.272 0 170.688-76.416 170.688-170.688s-76.416-170.688-170.688-170.688zM846.72 721.28c0-33.92-27.52-61.44-61.44-61.44s-61.44 27.52-61.44 61.44 27.52 61.44 61.44 61.44 61.44-27.52 61.44-61.44z" />
<glyph unicode="&#xe939;" glyph-name="brand3" d="M818.752 275.84c36.48 99.84 170.24 479.36 191.616 578.816 24.32 112.64-26.496 123.52-142.080 85.76-115.52-37.76-411.84-147.52-461.76-165.248s-292.672-99.328-343.040-123.648c-102.784-55.168-52.8-139.328 62.080-183.040 343.68-164.928 246.080-80.896 399.488-386.048 31.552-77.952 105.984-210.752 177.28-110.336 37.504 57.088 87.68 225.28 116.48 303.808z" />
<glyph unicode="&#xe93a;" glyph-name="brand4" d="M1024 765.568c-37.76-16.64-78.080-27.968-120.64-33.088 43.328 26.048 76.672 67.2 92.352 116.224-40.576-23.68-85.568-40.96-133.44-50.56-38.272 40.96-92.8 66.56-153.344 66.56-115.968 0-210.048-94.080-210.048-209.92 0-16.64 1.92-32.64 5.44-48-174.592 8.32-329.408 92.16-433.024 218.88-18.176-30.784-28.416-66.624-28.416-105.664 0-72.96 37.12-137.152 93.44-174.848-34.432 1.088-66.88 10.56-95.168 26.24v-2.56c0-101.76 72.32-186.752 168.512-206.080-17.664-4.736-36.224-7.296-55.36-7.296-13.44 0-26.24 1.28-39.040 3.712 26.88-83.456 104.32-144.192 196.48-145.92-71.68-56.32-162.56-89.856-260.48-89.856-16.64 0-33.28 0.96-49.92 2.88 93.44-59.52 203.52-94.336 322.56-94.336 386.56 0 597.76 320 597.76 597.12 0 8.96 0 17.92-0.64 26.88 40.96 29.44 76.8 66.56 104.96 108.8z" />
<glyph unicode="&#xf007;" glyph-name="user" horiz-adv-x="731" d="M731.429 151.428c0-83.429-54.857-151.429-121.714-151.429h-488c-66.857 0-121.714 68-121.714 151.429 0 150.286 37.143 324 186.857 324 46.286-45.143 109.143-73.143 178.857-73.143s132.571 28 178.857 73.143c149.714 0 186.857-173.714 186.857-324zM585.143 658.286c0-121.143-98.286-219.429-219.429-219.429s-219.429 98.286-219.429 219.429 98.286 219.429 219.429 219.429 219.429-98.286 219.429-219.429z" />
<glyph unicode="&#xf017;" glyph-name="clock-o" horiz-adv-x="878" d="M512 640v-256c0-10.286-8-18.286-18.286-18.286h-182.857c-10.286 0-18.286 8-18.286 18.286v36.571c0 10.286 8 18.286 18.286 18.286h128v201.143c0 10.286 8 18.286 18.286 18.286h36.571c10.286 0 18.286-8 18.286-18.286zM749.714 438.857c0 171.429-139.429 310.857-310.857 310.857s-310.857-139.429-310.857-310.857 139.429-310.857 310.857-310.857 310.857 139.429 310.857 310.857zM877.714 438.857c0-242.286-196.571-438.857-438.857-438.857s-438.857 196.571-438.857 438.857 196.571 438.857 438.857 438.857 438.857-196.571 438.857-438.857z" />
<glyph unicode="&#xf018;" glyph-name="clock-o2" horiz-adv-x="878" d="M512 640v-256c0-10.286-8-18.286-18.286-18.286h-182.857c-10.286 0-18.286 8-18.286 18.286v36.571c0 10.286 8 18.286 18.286 18.286h128v201.143c0 10.286 8 18.286 18.286 18.286h36.571c10.286 0 18.286-8 18.286-18.286zM749.714 438.857c0 171.429-139.429 310.857-310.857 310.857s-310.857-139.429-310.857-310.857 139.429-310.857 310.857-310.857 310.857 139.429 310.857 310.857zM877.714 438.857c0-242.286-196.571-438.857-438.857-438.857s-438.857 196.571-438.857 438.857 196.571 438.857 438.857 438.857 438.857-196.571 438.857-438.857z" />
<glyph unicode="&#xf024;" glyph-name="flag" horiz-adv-x="1061" d="M182.857 804.571c0-26.286-14.286-49.714-36.571-62.857v-723.429c0-9.714-8.571-18.286-18.286-18.286h-36.571c-9.714 0-18.286 8.571-18.286 18.286v723.429c-22.286 13.143-36.571 36.571-36.571 62.857 0 40.571 32.571 73.143 73.143 73.143s73.143-32.571 73.143-73.143zM1024 768v-436c0-21.143-13.143-29.143-29.714-37.714-64.571-34.857-136-66.286-210.857-66.286-105.143 0-155.429 80-280 80-90.857 0-186.286-41.143-265.143-83.429-6.286-3.429-12-5.143-18.857-5.143-20 0-36.571 16.571-36.571 36.571v424c0 13.714 6.857 23.429 17.714 31.429 13.714 9.143 30.286 17.143 45.143 24.571 72 36.571 159.429 68.571 240.571 68.571 89.714 0 160-29.714 239.429-66.857 16-8 32.571-10.857 50.286-10.857 89.714 0 186.286 77.714 211.429 77.714 20 0 36.571-16.571 36.571-36.571z" />
<glyph unicode="&#xf041;" glyph-name="map-marker" horiz-adv-x="585" d="M438.857 585.143c0 80.571-65.714 146.286-146.286 146.286s-146.286-65.714-146.286-146.286 65.714-146.286 146.286-146.286 146.286 65.714 146.286 146.286zM585.143 585.143c0-34.857-4-70.857-18.857-102.286l-208-442.286c-12-25.143-38.286-40.571-65.714-40.571s-53.714 15.429-65.143 40.571l-208.571 442.286c-14.857 31.429-18.857 67.429-18.857 102.286 0 161.714 130.857 292.571 292.571 292.571s292.571-130.857 292.571-292.571z" />
<glyph unicode="&#xf045;" glyph-name="share-square-o" horiz-adv-x="954" d="M804.571 385.714v-148c0-90.857-73.714-164.571-164.571-164.571h-475.429c-90.857 0-164.571 73.714-164.571 164.571v475.429c0 90.857 73.714 164.571 164.571 164.571h145.714c9.714 0 18.286-8 18.286-18.286 0-9.143-6.286-16.571-14.857-18.286-28.571-9.714-54.286-21.143-76-34.286-2.857-1.143-5.714-2.286-9.143-2.286h-64c-50.286 0-91.429-41.143-91.429-91.429v-475.429c0-50.286 41.143-91.429 91.429-91.429h475.429c50.286 0 91.429 41.143 91.429 91.429v122.286c0 6.857 4 13.143 10.286 16.571 11.429 5.143 21.714 12.571 30.857 21.143 5.143 5.143 13.143 7.429 20 4.571s12-9.143 12-16.571zM940 669.143l-219.429-219.429c-6.857-7.429-16-10.857-25.714-10.857-4.571 0-9.714 1.143-14.286 2.857-13.143 5.714-22.286 18.857-22.286 33.714v109.714h-91.429c-125.714 0-205.714-24-250.286-74.857-46.286-53.143-60-138.857-42.286-270.286 1.143-8-4-16-11.429-19.429-2.286-0.571-4.571-1.143-6.857-1.143-5.714 0-11.429 2.857-14.857 7.429-4 5.714-94.857 134.286-94.857 248.571 0 153.143 48 329.143 420.571 329.143h91.429v109.714c0 14.857 9.143 28 22.286 33.714 4.571 1.714 9.714 2.857 14.286 2.857 9.714 0 18.857-4 25.714-10.857l219.429-219.429c14.286-14.286 14.286-37.143 0-51.429z" />
<glyph unicode="&#xf068;" glyph-name="minus" horiz-adv-x="805" d="M804.571 530.286v-109.714c0-30.286-24.571-54.857-54.857-54.857h-694.857c-30.286 0-54.857 24.571-54.857 54.857v109.714c0 30.286 24.571 54.857 54.857 54.857h694.857c30.286 0 54.857-24.571 54.857-54.857z" />
<glyph unicode="&#xf090;" glyph-name="sign-in" horiz-adv-x="878" d="M676.571 438.857c0-9.714-4-18.857-10.857-25.714l-310.857-310.857c-6.857-6.857-16-10.857-25.714-10.857-20 0-36.571 16.571-36.571 36.571v164.571h-256c-20 0-36.571 16.571-36.571 36.571v219.429c0 20 16.571 36.571 36.571 36.571h256v164.571c0 20 16.571 36.571 36.571 36.571 9.714 0 18.857-4 25.714-10.857l310.857-310.857c6.857-6.857 10.857-16 10.857-25.714zM877.714 640v-402.286c0-90.857-73.714-164.571-164.571-164.571h-182.857c-9.714 0-18.286 8.571-18.286 18.286 0 16-7.429 54.857 18.286 54.857h182.857c50.286 0 91.429 41.143 91.429 91.429v402.286c0 50.286-41.143 91.429-91.429 91.429h-164.571c-14.286 0-36.571-2.857-36.571 18.286 0 16-7.429 54.857 18.286 54.857h182.857c90.857 0 164.571-73.714 164.571-164.571z" />
<glyph unicode="&#xf0e0;" glyph-name="envelope" d="M1024 545.143v-453.714c0-50.286-41.143-91.429-91.429-91.429h-841.143c-50.286 0-91.429 41.143-91.429 91.429v453.714c17.143-18.857 36.571-35.429 57.714-49.714 94.857-64.571 190.857-129.143 284-197.143 48-35.429 107.429-78.857 169.714-78.857h1.143c62.286 0 121.714 43.429 169.714 78.857 93.143 67.429 189.143 132.571 284.571 197.143 20.571 14.286 40 30.857 57.143 49.714zM1024 713.143c0-64-47.429-121.714-97.714-156.571-89.143-61.714-178.857-123.429-267.429-185.714-37.143-25.714-100-78.286-146.286-78.286h-1.143c-46.286 0-109.143 52.571-146.286 78.286-88.571 62.286-178.286 124-266.857 185.714-40.571 27.429-98.286 92-98.286 144 0 56 30.286 104 91.429 104h841.143c49.714 0 91.429-41.143 91.429-91.429z" />
<glyph unicode="&#xf0fe;" glyph-name="plus-square" horiz-adv-x="878" d="M731.429 402.286v73.143c0 20-16.571 36.571-36.571 36.571h-182.857v182.857c0 20-16.571 36.571-36.571 36.571h-73.143c-20 0-36.571-16.571-36.571-36.571v-182.857h-182.857c-20 0-36.571-16.571-36.571-36.571v-73.143c0-20 16.571-36.571 36.571-36.571h182.857v-182.857c0-20 16.571-36.571 36.571-36.571h73.143c20 0 36.571 16.571 36.571 36.571v182.857h182.857c20 0 36.571 16.571 36.571 36.571zM877.714 713.143v-548.571c0-90.857-73.714-164.571-164.571-164.571h-548.571c-90.857 0-164.571 73.714-164.571 164.571v548.571c0 90.857 73.714 164.571 164.571 164.571h548.571c90.857 0 164.571-73.714 164.571-164.571z" />
<glyph unicode="&#xf15a;" glyph-name="bitcoin, btc" horiz-adv-x="760" d="M666.857 585.143c7.429-76-24.571-121.714-74.857-147.429 83.429-20 136-69.714 125.714-181.143-13.143-138.857-116-176-263.429-184v-145.714h-88v143.429c-22.286 0-45.714 0-69.714 0.571v-144h-88v145.714c-20.571 0-41.143 0.571-62.286 0.571h-114.286l17.714 104.571c64.571-1.143 63.429 0 63.429 0 24.571 0 31.429 17.714 33.143 29.143v229.714h9.143c-3.429 0.571-6.857 0.571-9.143 0.571v164c-3.429 18.286-14.857 38.857-50.857 38.857 0 0 1.143 1.143-63.429 0v93.714l121.143-0.571c17.714 0 36.571 0 55.429 0.571v144h88v-141.143c23.429 0.571 46.857 1.143 69.714 1.143v140h88v-144c113.143-9.714 202.857-44.571 212.571-148.571zM544 273.714c0 113.143-186.286 96.571-245.714 96.571v-193.143c59.429 0 245.714-12.571 245.714 96.571zM503.429 545.714c0 103.429-155.429 88-205.143 88v-175.429c49.714 0 205.143-11.429 205.143 87.429z" />
</font>
</defs>
</svg>
